<?xml version="1.0" standalone="no"?><!DOCTYPE svg PUBLIC "-//W3C//DTD SVG 1.1//EN" "http://www.w3.org/Graphics/SVG/1.1/DTD/svg11.dtd"><svg t="1537343698064" class="icon" style="" viewBox="0 0 1024 1024" version="1.1" xmlns="http://www.w3.org/2000/svg" p-id="3945" xmlns:xlink="http://www.w3.org/1999/xlink" width="200" height="200"><defs><style type="text/css"></style></defs><path d="M676.52083333 367.2125c10.35 0 20.53125 0.7875 30.76875 1.9125-27.5625-128.3625-164.75625-223.70625-321.4125-223.70625C210.77083333 145.41875 67.33333333 264.725 67.33333333 416.31875c0 87.46875 47.7 159.3 127.4625 215.1L162.95833333 727.2125l111.375-55.8c39.825 7.81875 71.775 15.91875 111.54375 15.91875 10.0125 0 19.9125-0.45 29.7-1.18125-6.1875-21.31875-9.84375-43.59375-9.84375-66.825 0.05625-139.1625 119.53125-252.1125 270.7875-252.1125z m-171.225-86.34375c24.075 0 39.88125 15.80625 39.88125 39.76875 0 23.85-15.80625 39.825-39.88125 39.825-23.79375 0-47.75625-15.975-47.75625-39.825 0-24.01875 23.90625-39.76875 47.75625-39.76875z m-222.91875 79.59375c-23.90625 0-47.98125-15.975-47.98125-39.825 0-23.9625 24.075-39.76875 47.98125-39.76875s39.76875 15.75 39.76875 39.76875c0 23.85-15.8625 39.825-39.76875 39.825zM967.33333333 615.5c0-127.35-127.4625-231.13125-270.61875-231.13125-151.59375 0-270.9 103.8375-270.9 231.13125 0 127.6875 119.3625 231.13125 270.9 231.13125 31.725 0 63.73125-7.93125 95.56875-15.91875l87.35625 47.925-23.9625-79.65C919.63333333 750.95 967.33333333 687.33125 967.33333333 615.5z m-358.48125-39.88125c-15.80625 0-31.8375-15.75-31.8375-31.8375 0-15.8625 16.03125-31.8375 31.8375-31.8375 24.1875 0 39.88125 15.975 39.88125 31.8375 0 16.0875-15.69375 31.8375-39.88125 31.8375z m175.21875 0c-15.69375 0-31.66875-15.75-31.66875-31.8375 0-15.8625 15.91875-31.8375 31.66875-31.8375 23.9625 0 39.88125 15.975 39.88125 31.8375 0 16.0875-15.91875 31.8375-39.88125 31.8375z" p-id="3946"></path></svg>