<?xml version="1.0" standalone="no"?><!DOCTYPE svg PUBLIC "-//W3C//DTD SVG 1.1//EN" "http://www.w3.org/Graphics/SVG/1.1/DTD/svg11.dtd"><svg t="1578845132535" class="icon" viewBox="0 0 1026 1024" version="1.1" xmlns="http://www.w3.org/2000/svg" p-id="2104" xmlns:xlink="http://www.w3.org/1999/xlink" width="100.1953125" height="100"><defs><style type="text/css">@font-face { font-family: element-icons; src: url("chrome-extension://moombeodfomdpjnpocobemoiaemednkg/fonts/element-icons.woff") format("woff"), url("chrome-extension://moombeodfomdpjnpocobemoiaemednkg/fonts/element-icons.ttf ") format("truetype"); }
</style></defs><path d="M585.42105253 327.26315761h-37.89473641v371.84210596h37.89473641c66.31578984 0 116.05263135-16.57894746 151.57894747-45 33.15789492-30.78947373 49.73684239-78.15789492 49.73684239-139.73684238 0-61.57894747-16.57894746-111.31578984-49.73684239-139.73684238-35.52631612-33.15789492-85.26315761-47.36842119-151.57894746-47.3684212z" fill="#DD2727" p-id="2105"></path><path d="M850.68421016 62H175.68421016C111.73684238 62 62 111.73684238 62 175.68421016v675C62 912.26315762 111.73684238 962 175.68421016 962h675c61.57894747 0 113.68421016-49.73684239 113.68421103-113.68421016V175.68421016C962 111.73684238 912.26315762 62 850.68421016 62zM405.42105253 587.78947373c0 61.57894747-18.94736865 108.94736865-54.47368388 139.73684239-35.52631612 30.78947373-92.36842119 45-165.78947373 45h-11.84210508v-75.78947373h9.47368389c26.05263135 0 47.36842119-2.36842119 63.94736865-7.10526358 16.57894746-4.73684238 33.15789492-11.84210508 45-21.31578897 9.47368388-7.10526357 16.57894746-18.94736865 21.31578897-30.78947372 4.73684238-14.21052627 7.10526357-37.89473643 7.10526357-73.42105255V246.73684239h85.26315761v341.05263134z m388.42105255 120.78947373c-49.73684239 42.63157881-123.15789492 66.31578984-217.89473643 66.31578897H464.63157881V249.10526357h111.31578984c94.73684239 0 168.15789492 21.31578984 217.89473643 66.31578897 49.73684239 42.63157881 75.78947373 111.31578984 75.78947373 196.57894746-2.36842119 85.26315761-28.42105253 153.94736865-75.78947373 196.57894747z" fill="#DD2727" p-id="2106"></path></svg>